<svg width="13" height="20" viewBox="0 0 13 20" fill="none" xmlns="http://www.w3.org/2000/svg">
<g clip-path="url(#clip0_132_449)">
<path d="M7.38659 12.3531C7.42933 13.2922 7.47034 14.1921 7.51397 15.1515C8.04278 15.1002 8.50792 15.0516 8.97371 15.0115C9.17822 14.9857 9.38479 14.9787 9.59067 14.9902C9.89915 15.0205 10.1185 15.181 10.1723 15.4948C10.1974 15.6408 10.1664 15.7906 10.085 15.916C10.0037 16.0414 9.87768 16.1338 9.7307 16.1757C9.49545 16.2377 9.25249 16.2683 9.00863 16.2666C8.55924 16.2801 8.10897 16.2706 7.61827 16.2706C7.61827 16.4897 7.61159 16.6635 7.61941 16.8367C7.64982 17.5092 7.69652 18.1812 7.71128 18.8539C7.71246 19.0888 7.67422 19.3223 7.5981 19.5454C7.56486 19.671 7.4869 19.7813 7.37787 19.8571C7.26884 19.9328 7.13573 19.9691 7.0018 19.9595C6.87759 19.9576 6.75721 19.9176 6.65806 19.8454C6.55891 19.7731 6.48607 19.6723 6.45015 19.5575C6.37687 19.3713 6.33135 19.176 6.31496 18.9775C6.26836 18.2877 6.24016 17.5967 6.20899 16.9061C6.20094 16.7277 6.20791 16.5487 6.20791 16.2868C5.96157 16.2868 5.76315 16.2929 5.56529 16.2856C5.11359 16.269 4.65924 16.27 4.21173 16.2176C3.86481 16.177 3.68668 15.9474 3.69924 15.6676C3.71224 15.3763 3.89136 15.2234 4.28312 15.2159C4.88377 15.2044 5.48488 15.2129 6.14788 15.2129C6.18269 14.2691 6.21596 13.369 6.25143 12.4107C6.04872 12.3872 5.83169 12.3529 5.61322 12.338C2.69164 12.1391 0.835593 10.3805 0.234067 7.70851C0.0235252 6.83814 -0.00239344 5.93563 0.157842 5.05533C0.318077 4.17503 0.661138 3.33516 1.16642 2.58629C1.36076 2.29564 1.59776 2.03376 1.86998 1.80883C2.98044 0.865965 4.367 0.279902 5.8377 0.13174C7.43571 -0.0412388 8.95817 0.165628 10.3424 0.989245C11.0475 1.40914 11.5129 2.06844 11.9101 2.7495C13.2298 5.01227 13.2402 7.33457 12.0894 9.64797C11.3571 11.1202 10.0262 11.8646 8.40786 12.1761C8.09432 12.2359 7.77912 12.2852 7.38659 12.3531ZM5.72382 1.35312C4.98315 1.2544 4.1247 1.66046 3.28907 2.12865C2.64862 2.48489 2.12832 3.01214 1.79075 3.64706C0.872597 5.33099 1.02705 7.02131 1.75175 8.70248C2.33829 10.0634 3.42636 10.8695 4.91993 11.154C6.28415 11.4135 7.62358 11.2776 8.93008 10.8478C9.74798 10.5789 10.4026 10.0732 10.7719 9.32098C11.8273 7.1713 11.758 5.0662 10.3649 3.05981C10.0398 2.56298 9.57187 2.16828 9.01831 1.92394C8.05609 1.52224 7.04707 1.3285 5.72382 1.35265V1.35312Z" fill="black"/>
</g>
<defs>
<clipPath id="clip0_132_449">
<rect width="13" height="20" fill="white"/>
</clipPath>
</defs>
</svg>
