<svg width="21" height="20" viewBox="0 0 21 20" fill="none" xmlns="http://www.w3.org/2000/svg">
<g clip-path="url(#clip0_132_499)">
<path d="M19.047 2.02554C17.3267 3.69642 15.6114 5.36258 13.901 7.02407C14.2881 7.75354 14.7112 8.42184 15.0112 9.13987C16.0741 11.6822 15.8951 14.2008 14.6819 16.6438C14.0764 17.8788 13.002 18.8304 11.6903 19.2941C9.66861 20.0674 7.45251 20.2029 5.349 19.682C2.7034 19.0241 1.1558 17.2501 0.440062 14.7195C-0.23983 12.3179 0.0521772 10.0411 1.40086 7.91686C1.57949 7.62842 1.7964 7.36474 2.04594 7.13278C3.23461 6.03853 4.70599 5.28645 6.29949 4.95857C7.78051 4.64855 9.3166 4.70511 10.7699 5.12317C11.4857 5.32133 12.1635 5.65104 12.7969 5.89722L17.4115 1.50386C17.2555 1.46722 17.0973 1.44045 16.9379 1.4238C16.4347 1.40696 15.9309 1.40632 15.4276 1.39303C14.6812 1.37316 14.3495 1.16121 14.3662 0.723182C14.3824 0.295814 14.714 0.111442 15.4775 0.107626C15.7521 0.10631 16.0268 0.113415 16.3015 0.107626C17.3302 0.0839416 18.3589 0.0614288 19.3874 0.0286656C20.0576 0.00695509 20.3791 0.207262 20.4957 0.86292C20.6846 1.92529 20.8441 2.99249 20.9743 4.0645C20.9925 4.18251 20.9865 4.30291 20.9565 4.41857C20.9265 4.53424 20.8733 4.64278 20.7999 4.73782C20.7264 4.83286 20.6344 4.91242 20.5291 4.9718C20.4239 5.0312 20.3076 5.06917 20.1871 5.08353C19.7235 5.123 19.3311 4.73832 19.2766 4.177C19.2745 4.04228 19.2806 3.90757 19.2951 3.77359C19.3018 3.54899 19.3186 3.32345 19.3054 3.09976C19.2855 2.76555 19.2432 2.43265 19.2104 2.09975L19.047 2.02554ZM7.02777 6.32447C6.27191 6.22566 5.26658 6.61959 4.28854 7.1367C3.30786 7.64016 2.5246 8.44936 2.06135 9.43753C1.10124 11.44 1.31336 13.4263 2.13195 15.3888C2.83418 17.0721 4.1398 18.0883 5.95517 18.4495C7.6345 18.7837 9.28304 18.616 10.8908 18.0716C11.3852 17.9171 11.8414 17.663 12.2304 17.3255C12.6194 16.9879 12.9327 16.5743 13.1501 16.111C14.3539 13.5158 14.2885 10.9686 12.6721 8.53658C12.2537 7.90711 11.7184 7.36987 11.0122 7.05921C9.87121 6.55776 8.66445 6.32711 7.02725 6.32447H7.02777Z" fill="black"/>
</g>
<defs>
<clipPath id="clip0_132_499">
<rect width="21" height="20" fill="white"/>
</clipPath>
</defs>
</svg>
