<svg width="29" height="23" viewBox="0 0 29 23" fill="none" xmlns="http://www.w3.org/2000/svg">
<g clip-path="url(#clip0_119_41)">
<path d="M28.8042 10.8837C28.7405 9.72287 28.6896 8.5413 28.6402 7.39879C28.5921 6.28616 28.5425 5.1356 28.4808 4.00444C28.3918 2.36176 27.5248 1.16504 25.9739 0.543632C25.4263 0.324352 24.7523 0.208396 23.915 0.188831C21.697 0.137419 19.4417 0.113655 17.2605 0.0905514C16.4841 0.082295 15.7078 0.0736546 14.9316 0.0646349C14.912 0.0488363 14.8875 0.0401541 14.8621 0.0401414H13.0541C11.5849 0.0401414 10.1158 0.0405655 8.64687 0.0412593C8.37801 0.0412593 8.1083 0.0406665 7.83955 0.039938C7.03158 0.0372321 6.196 0.0349865 5.37423 0.0641267C4.25226 0.103778 3.38831 0.317624 2.65556 0.737244C1.17156 1.58731 0.379966 2.80071 0.302739 4.344C0.262054 5.1567 0.248348 5.98331 0.235176 6.78279L0.226573 7.28334C0.214675 7.95432 0.202245 8.62516 0.189285 9.29588C0.147538 11.506 0.104304 13.7913 0.087201 16.0398C0.0802963 16.9348 0.126611 17.9937 0.52167 19.0613C1.10592 20.6404 2.18359 21.6613 3.8163 22.1822C5.33535 22.6556 6.91943 22.8983 8.51345 22.9016C12.4757 22.9517 16.6317 22.9755 21.5229 22.9755H22.473C23.3719 22.9904 24.2692 22.8952 25.1439 22.6922C27.1493 22.1896 28.3378 20.9854 28.6762 19.1127C28.7838 18.4775 28.8586 17.8372 28.9001 17.1945C29.0466 15.2441 28.9368 13.2677 28.8303 11.3561L28.8042 10.8837ZM10.2747 21.2008C8.55839 21.1957 6.72448 21.1321 4.94273 20.704C4.22581 20.5319 3.71305 20.3302 3.30333 20.0573L12.1457 12.0903L12.3925 12.3505C12.6386 12.61 12.8925 12.8777 13.1491 13.1431C13.8916 13.9115 14.6201 13.9745 15.4413 13.3415C15.7773 13.0827 16.0965 12.7898 16.4052 12.5076C16.522 12.4004 16.6401 12.2924 16.76 12.185L25.4144 20.7432C25.1153 20.9842 24.7537 21.0346 24.3727 21.0878L24.2633 21.1032C23.8541 21.1565 23.4415 21.1813 23.0287 21.1771L20.608 21.1856C17.2209 21.198 13.719 21.211 10.2747 21.2008ZM23.7868 3.41487C22.4919 4.56019 21.153 5.74438 19.8762 6.9513C18.6021 8.15563 17.353 9.41778 16.1449 10.6387C15.6449 11.1441 15.1286 11.6659 14.6188 12.1751L3.86506 1.8422C3.94204 1.82215 4.01842 1.80189 4.09419 1.78142C4.38738 1.70327 4.66431 1.62923 4.9472 1.5748C6.35375 1.30421 7.80194 1.34101 9.20255 1.37712C9.51539 1.38503 9.82812 1.39286 10.1407 1.39785C10.6164 1.40514 11.1006 1.42068 11.5686 1.43577C11.9752 1.44878 12.3955 1.46231 12.8095 1.47032C13.9736 1.49287 15.1378 1.51452 16.302 1.53527C18.8185 1.58127 21.4206 1.62899 23.9794 1.68914C24.3392 1.70859 24.6967 1.75792 25.048 1.83661C25.1861 1.86357 25.3292 1.89123 25.4713 1.91538V1.91883C24.9116 2.41994 24.3399 2.92572 23.7866 3.41528L23.7868 3.41487ZM5.67506 15.9845C4.59654 16.9892 3.48254 18.0273 2.40529 19.088C1.95786 18.0538 1.72596 17.205 1.65692 16.3539C1.46571 13.9928 1.54517 11.6426 1.64353 9.43785C1.68847 8.43241 1.70642 7.40977 1.72384 6.42077C1.73574 5.74847 1.74806 5.05324 1.76867 4.37053C1.78991 3.64639 2.0371 3.13828 2.58991 2.68921L10.9925 10.7764C9.2819 12.6238 7.44842 14.3322 5.67443 15.9854L5.67506 15.9845ZM26.8578 18.9113C26.8185 19.1188 26.7659 19.3236 26.7004 19.5244C26.6768 19.6024 26.6532 19.6805 26.631 19.7586L26.5971 19.7696L17.6903 11.2662C20.7693 8.15437 23.6894 5.50048 26.61 3.15885C26.6225 3.21391 26.6353 3.26749 26.6478 3.31974C26.6998 3.50938 26.7344 3.70315 26.751 3.89885C26.8495 5.86832 26.9298 7.81195 26.9888 9.28541C27.0441 10.6681 27.0913 12.0323 27.1291 13.3404C27.1764 14.9967 27.1817 16.9543 26.8572 18.9118L26.8578 18.9113Z" fill="white"/>
</g>
<defs>
<clipPath id="clip0_119_41">
<rect width="29" height="23" fill="white"/>
</clipPath>
</defs>
</svg>
