<svg width="29" height="28" viewBox="0 0 29 28" fill="none" xmlns="http://www.w3.org/2000/svg">
<g clip-path="url(#clip0_119_62)">
<path d="M7.44861 6.6972C7.44861 6.30445 7.16418 6.05196 6.96093 5.76159C6.37206 4.92071 5.75966 4.09521 5.18979 3.24196C4.72503 2.57865 4.39829 1.83085 4.22851 1.04195C4.20206 0.898165 4.21066 0.750242 4.25367 0.610406C4.29668 0.470569 4.37289 0.342859 4.47584 0.237848C4.57533 0.1314 4.70496 0.0569983 4.8479 0.0243766C4.99085 -0.00824493 5.14044 0.00241033 5.27717 0.0549553C5.70166 0.239955 5.99633 0.566345 6.28012 0.90072C7.42088 2.24472 8.5559 3.59354 9.68518 4.9472C10.7702 6.24207 11.8709 7.52472 12.9287 8.84072C14.0783 10.2708 15.1857 11.7338 16.3129 13.1815C16.6288 13.587 16.9311 14.0045 17.2709 14.3895C18.7803 16.099 20.1341 17.927 21.5144 19.7366C22.048 20.4359 22.6482 21.0852 23.1896 21.779C24.4534 23.3987 25.7063 25.0267 26.9482 26.663C27.2395 27.0474 27.1226 27.6121 26.7669 27.8275C26.6026 27.9125 26.416 27.9457 26.2319 27.9227C26.0481 27.8997 25.8757 27.8214 25.7383 27.6986C25.53 27.4926 25.33 27.2776 25.1356 27.0587C23.4767 25.191 21.8181 23.3229 20.1601 21.4545C20.0663 21.3406 19.9436 21.2534 19.8045 21.2017C19.6653 21.15 19.5147 21.1357 19.3681 21.1604C18.858 21.2442 18.3515 21.3496 17.8428 21.4426C15.0749 21.9492 12.3903 21.5729 9.76191 20.6744C7.44343 19.8818 5.23929 18.8541 3.24601 17.4275C2.64199 17.0061 2.07198 16.5391 1.54111 16.0309C1.129 15.6131 0.770756 15.1467 0.474457 14.6424C-0.17722 13.5661 -0.100249 13.0651 0.794699 12.1042C2.4534 10.3293 4.34237 8.7784 6.41251 7.49172C6.7809 7.26122 7.23636 7.1342 7.44861 6.6972ZM11.5079 11.2597C10.9158 10.3286 10.1586 9.53772 9.3577 8.78997C9.22409 8.66497 8.94103 8.6461 8.73373 8.66247C8.51469 8.69367 8.30394 8.7667 8.11322 8.87746C5.94138 9.99546 3.98928 11.4224 2.16304 13.0241C2.09171 13.0812 2.03285 13.152 1.98996 13.2322C1.94708 13.3124 1.92104 13.4002 1.91347 13.4906C1.9059 13.581 1.91692 13.672 1.94588 13.758C1.97484 13.844 2.02113 13.9234 2.08197 13.9914C2.57189 14.5372 3.13728 15.0124 3.76147 15.4027C5.92621 16.8312 8.28456 17.8527 10.7724 18.5797C12.7795 19.1659 14.8341 19.2707 16.9081 19.0072C17.0644 18.9931 17.2141 18.9386 17.3421 18.849C17.4701 18.7594 17.5718 18.638 17.6369 18.4971C17.4332 18.23 17.2108 17.9434 16.9936 17.653C16.4416 16.9149 15.823 16.328 14.7742 16.6226C14.6279 16.6425 14.4797 16.6434 14.3333 16.6251C12.7638 16.6264 10.8634 15.3425 11.1352 12.9782C11.2004 12.4091 11.3759 11.8527 11.5079 11.2592V11.2597Z" fill="white"/>
<path d="M23.3797 19.4177C22.8443 19.1311 22.496 18.6768 22.1822 18.156C22.0839 17.9964 22.0461 17.8074 22.0752 17.6227C22.1044 17.4381 22.1989 17.2696 22.3419 17.1471C22.4047 17.0934 22.4717 17.0445 22.5424 17.0011C23.3616 16.503 24.1196 15.913 24.8013 15.2428C27.4579 12.6463 27.3137 13.2824 24.8013 10.8413C23.2437 9.32878 21.2736 8.45929 19.1899 7.86829C17.9081 7.50479 16.5979 7.2794 15.2529 7.33078C14.8837 7.34503 14.5137 7.33676 14.1443 7.34564C13.5855 7.35926 13.1464 7.11091 12.7842 6.72241C12.5863 6.50991 12.4271 6.26204 12.2496 6.03079C12.1397 5.88741 12.2738 5.56191 12.4554 5.50241C13.8966 5.03004 15.3739 5.08103 16.8459 5.2579C20.8857 5.7434 24.2813 7.5579 27.2155 10.2722C27.6956 10.7162 28.0902 11.2565 28.488 11.7793C28.7903 12.2005 28.9498 12.7054 28.9439 13.2215C28.9498 13.5051 28.941 13.8376 28.8022 14.0677C27.5047 16.2211 26.0072 18.1944 23.6445 19.335C23.5581 19.3682 23.4697 19.3959 23.3797 19.4177Z" fill="white"/>
<path d="M18.7263 12.7866C18.6903 13.0695 18.4778 13.7056 18.3717 13.5754C17.5421 12.5629 16.2892 11.081 15.4938 10.0418C15.4612 9.9871 15.4428 9.92526 15.4404 9.86185C15.438 9.79844 15.4515 9.73544 15.4799 9.6785C15.5302 9.62918 15.5908 9.59128 15.6575 9.56741C15.7241 9.54356 15.7952 9.53433 15.8658 9.54038C16.5219 9.64348 17.132 9.93657 17.6191 10.3825C18.3694 11.0605 18.8316 11.9569 18.7263 12.7866Z" fill="white"/>
</g>
<defs>
<clipPath id="clip0_119_62">
<rect width="29" height="28" fill="white"/>
</clipPath>
</defs>
</svg>
